<svg width="24" height="24" viewBox="0 0 24 24" fill="none" xmlns="http://www.w3.org/2000/svg">
<rect width="24" height="24" rx="12" transform="matrix(-1 0 0 1 24 0)" fill="white"/>
<path d="M17.1519 18.8483C17.3782 19.0668 17.6813 19.1878 17.996 19.1851C18.3106 19.1823 18.6116 19.0561 18.8341 18.8336C19.0566 18.6111 19.1828 18.3102 19.1855 17.9955C19.1882 17.6809 19.0673 17.3778 18.8487 17.1515L14.0487 12.3515C13.938 12.2368 13.8056 12.1454 13.6592 12.0825C13.5128 12.0196 13.3553 11.9865 13.196 11.9852C13.0366 11.9838 12.8786 12.0141 12.7311 12.0745C12.5837 12.1348 12.4497 12.2239 12.337 12.3366C12.2243 12.4493 12.1352 12.5832 12.0749 12.7307C12.0146 12.8782 11.9842 13.0362 11.9856 13.1955C11.987 13.3549 12.0201 13.5123 12.083 13.6587C12.1459 13.8051 12.2373 13.9376 12.3519 14.0483L17.1519 18.8483Z" fill="#24EEDD"/>
<path d="M18.0002 19.1998C18.3185 19.1998 18.6237 19.0734 18.8487 18.8483C19.0738 18.6233 19.2002 18.3181 19.2002 17.9998C19.2002 17.6815 19.0738 17.3763 18.8487 17.1513C18.6237 16.9262 18.3185 16.7998 18.0002 16.7998H13.2002C12.8819 16.7998 12.5767 16.9262 12.3517 17.1513C12.1266 17.3763 12.0002 17.6815 12.0002 17.9998C12.0002 18.3181 12.1266 18.6233 12.3517 18.8483C12.5767 19.0734 12.8819 19.1998 13.2002 19.1998H18.0002Z" fill="#24EEDD"/>
<path d="M16.8002 17.9999C16.8002 18.3182 16.9266 18.6234 17.1517 18.8484C17.3767 19.0735 17.6819 19.1999 18.0002 19.1999C18.3185 19.1999 18.6237 19.0735 18.8487 18.8484C19.0738 18.6234 19.2002 18.3182 19.2002 17.9999V13.1999C19.2002 12.8816 19.0738 12.5764 18.8487 12.3514C18.6237 12.1263 18.3185 11.9999 18.0002 11.9999C17.6819 11.9999 17.3767 12.1263 17.1517 12.3514C16.9266 12.5764 16.8002 12.8816 16.8002 13.1999V17.9999ZM9.9518 11.6483C10.1781 11.8669 10.4812 11.9878 10.7959 11.9851C11.1105 11.9824 11.4115 11.8562 11.634 11.6337C11.8565 11.4112 11.9827 11.1102 11.9854 10.7956C11.9881 10.4809 11.8672 10.1778 11.6486 9.9515L6.84859 5.1515C6.7379 5.03689 6.60548 4.94547 6.45908 4.88258C6.31268 4.81969 6.15521 4.78659 5.99588 4.7852C5.83654 4.78382 5.67853 4.81418 5.53105 4.87452C5.38357 4.93485 5.24959 5.02396 5.13692 5.13663C5.02425 5.2493 4.93515 5.38328 4.87481 5.53076C4.81447 5.67823 4.78411 5.83625 4.78549 5.99558C4.78688 6.15492 4.81998 6.31238 4.88287 6.45879C4.94576 6.60519 5.03718 6.73761 5.1518 6.8483L9.9518 11.6483Z" fill="#24EEDD"/>
<path d="M4.8002 10.7998C4.8002 11.1181 4.92662 11.4233 5.15167 11.6483C5.37671 11.8734 5.68194 11.9998 6.0002 11.9998C6.31846 11.9998 6.62368 11.8734 6.84872 11.6483C7.07377 11.4233 7.2002 11.1181 7.2002 10.7998V5.9998C7.2002 5.68154 7.07377 5.37632 6.84872 5.15128C6.62368 4.92623 6.31846 4.7998 6.0002 4.7998C5.68194 4.7998 5.37671 4.92623 5.15167 5.15128C4.92662 5.37632 4.8002 5.68154 4.8002 5.9998V10.7998Z" fill="#24EEDD"/>
<path d="M10.8 7.1998C11.1183 7.1998 11.4235 7.07338 11.6485 6.84833C11.8736 6.62329 12 6.31806 12 5.9998C12 5.68154 11.8736 5.37632 11.6485 5.15128C11.4235 4.92623 11.1183 4.7998 10.8 4.7998H6C5.68174 4.7998 5.37652 4.92623 5.15147 5.15128C4.92643 5.37632 4.8 5.68154 4.8 5.9998C4.8 6.31806 4.92643 6.62329 5.15147 6.84833C5.37652 7.07338 5.68174 7.1998 6 7.1998H10.8Z" fill="#24EEDD"/>
</svg>
