<svg width="24" height="24" viewBox="0 0 24 24" fill="none" xmlns="http://www.w3.org/2000/svg">
<rect width="24" height="24" rx="12" fill="#24EEDD"/>
<g clip-path="url(#clip0_391_3650)">
<path fill-rule="evenodd" clip-rule="evenodd" d="M11.575 7.01811C12.4379 6.94447 13.3052 7.09624 14.0919 7.45856C14.8785 7.82088 15.5576 8.38132 16.0625 9.08498V8.09373C16.0625 7.96941 16.1119 7.85019 16.1998 7.76228C16.2877 7.67437 16.4069 7.62498 16.5312 7.62498C16.6556 7.62498 16.7748 7.67437 16.8627 7.76228C16.9506 7.85019 17 7.96941 17 8.09373V10.75H14.3438C14.2194 10.75 14.1002 10.7006 14.0123 10.6127C13.9244 10.5248 13.875 10.4056 13.875 10.2812C13.875 10.1569 13.9244 10.0377 14.0123 9.94978C14.1002 9.86187 14.2194 9.81248 14.3438 9.81248H15.4231C14.9957 9.14368 14.3817 8.61473 13.657 8.29098C12.9323 7.96723 12.1287 7.86286 11.3453 7.99077C10.562 8.11868 9.83323 8.47327 9.24915 9.01072C8.66508 9.54817 8.25124 10.245 8.05875 11.015C8.04455 11.0755 8.01847 11.1325 7.98202 11.1829C7.94557 11.2332 7.89948 11.2757 7.84643 11.3081C7.79338 11.3404 7.73443 11.3619 7.67301 11.3713C7.61159 11.3806 7.54892 11.3777 7.48864 11.3626C7.42837 11.3475 7.37169 11.3206 7.32191 11.2834C7.27213 11.2463 7.23023 11.1996 7.19867 11.146C7.1671 11.0925 7.14648 11.0333 7.13802 10.9717C7.12956 10.9102 7.13342 10.8475 7.14937 10.7875C7.40221 9.7765 7.96463 8.86978 8.758 8.19408C9.55136 7.51837 10.536 7.10744 11.5744 7.01873L11.575 7.01811ZM9.45 16.3006C10.12 16.6977 10.8735 16.9328 11.6504 16.9872C12.4274 17.0415 13.2063 16.9137 13.925 16.6137C14.6438 16.3138 15.2825 15.85 15.7904 15.2595C16.2982 14.669 16.661 13.9681 16.85 13.2125C16.8781 13.0926 16.858 12.9665 16.7939 12.8613C16.7298 12.7562 16.6269 12.6805 16.5074 12.6506C16.388 12.6207 16.2615 12.6391 16.1555 12.7016C16.0494 12.7642 15.9722 12.866 15.9406 12.985C15.748 13.7549 15.3342 14.4515 14.7502 14.9888C14.1661 15.5261 13.4375 15.8806 12.6543 16.0085C11.8711 16.1364 11.0676 16.0321 10.3429 15.7085C9.61833 15.3849 9.00437 14.8561 8.57687 14.1875H9.65625C9.78057 14.1875 9.8998 14.1381 9.98771 14.0502C10.0756 13.9623 10.125 13.8431 10.125 13.7187C10.125 13.5944 10.0756 13.4752 9.98771 13.3873C9.8998 13.2994 9.78057 13.25 9.65625 13.25H7V15.9062C7 16.0306 7.04939 16.1498 7.13729 16.2377C7.2252 16.3256 7.34443 16.375 7.46875 16.375C7.59307 16.375 7.7123 16.3256 7.80021 16.2377C7.88811 16.1498 7.9375 16.0306 7.9375 15.9062V14.915C8.34049 15.4764 8.85549 15.9482 9.45 16.3006Z" fill="#FDFDFD"/>
</g>
<defs>
<clipPath id="clip0_391_3650">
<rect width="10" height="10" fill="white" transform="translate(7 7)"/>
</clipPath>
</defs>
</svg>
